<svg width="12" height="12" viewBox="0 0 12 12" fill="none" xmlns="http://www.w3.org/2000/svg">
<path d="M6.20663 8.94078L8.57101 10.4385C8.87326 10.6298 9.24826 10.3452 9.15863 9.99228L8.47576 7.30541C8.45647 7.23057 8.45869 7.1518 8.48217 7.07816C8.50566 7.00453 8.54945 6.93902 8.60851 6.88916L10.7288 5.12478C11.007 4.89303 10.8638 4.43066 10.5056 4.40741L7.73701 4.22741C7.66246 4.22212 7.59096 4.19577 7.53081 4.15142C7.47066 4.10707 7.42435 4.04656 7.39726 3.97691L6.36451 1.37666C6.33638 1.30276 6.28647 1.23916 6.22137 1.19428C6.15627 1.1494 6.07907 1.12537 6.00001 1.12537C5.92094 1.12537 5.84374 1.1494 5.77864 1.19428C5.71354 1.23916 5.66363 1.30276 5.63551 1.37666L4.60276 3.97691C4.57572 4.04663 4.52943 4.10722 4.46928 4.15164C4.40913 4.19606 4.33759 4.22246 4.26301 4.22778L1.49438 4.40778C1.13663 4.43066 0.992631 4.89303 1.27126 5.12478L3.39151 6.88953C3.4505 6.93936 3.49424 7.00481 3.51772 7.07837C3.54121 7.15193 3.54347 7.23062 3.52426 7.30541L2.89126 9.79728C2.78363 10.2207 3.23401 10.5623 3.59626 10.3324L5.79376 8.94078C5.85552 8.90152 5.92719 8.88066 6.00038 8.88066C6.07357 8.88066 6.14524 8.90152 6.20701 8.94078H6.20663Z" fill="#CCCCCC"/>
</svg>
